<svg xmlns="http://www.w3.org/2000/svg" viewBox="0 0 289.68 78.83"><g><path fill="#999" d="M116.52,29.84a1.43,1.43,0,0,1,2,0h0l7.56,7.56,7.56-7.56a1.43,1.43,0,1,1,2,2l-7.56,7.56L135.68,47a1.43,1.43,0,1,1-2,2l-7.56-7.56L118.54,49a1.43,1.43,0,0,1-2-2l7.56-7.56-7.56-7.56a1.42,1.42,0,0,1,0-2Z"/></g><g id="图层_5_复制" data-name="图层 5_复制"><rect fill="#5af100" width="14.56" height="72.18"/><rect fill="#5af100" x="24.48" y="36.09" width="14.56" height="36.09"/><rect fill="#ff0037" x="52.34" y="6.65" width="14.56" height="36.09"/><rect fill="#ff0037" x="76.83" y="6.65" width="14.56" height="72.18"/><path fill="#5580ff" fill-rule="evenodd" d="M185.39,73.93H161.11v-70h24.28V9.64H168.25V35.36H184v5.71H168.25V68.21h17.14Zm36.45,0H191.11v-.36L203.34,38.1q-11.58-34-11.53-34.17h29.3v.4l-10,27.86v.31H211l-1.88,5.24Q221.94,73.76,221.84,73.93ZM210,19.64h-7L199.4,8.21h14.37Zm-3.66,25.53,5.18,15.9H201.19Zm23.32,28.76h21.43V68.21H235.39V3.93h-5.71Zm60-5.06a4.87,4.87,0,0,1-1.45,3.65,5.09,5.09,0,0,1-3.72,1.41H266.07a4.75,4.75,0,0,1-5-5V8.89a4.75,4.75,0,0,1,5-5h17.65A4.17,4.17,0,0,1,287,5.33a5.13,5.13,0,0,1,1.27,3.61V25.36h-5.72V9.64H266.82V68.21h15.71V43.93h-7.14V38.21h14.29Z"/></g></svg>